<svg xmlns="http://www.w3.org/2000/svg" viewBox="0 0 2151 637"><title>Artboard 1</title><linearGradient id="a" gradientUnits="userSpaceOnUse" x1="949.1" y1="396.1" x2="948.7" y2="397" gradientTransform="matrix(141 0 0 -210 -132821 83433.102)"><stop offset="0" stop-color="#53A0FE"/><stop offset="1" stop-color="#0C64CA"/></linearGradient><path fill="url(#a)" d="M1020 52l-141 66 118 144 23-210z"/><linearGradient id="b" gradientUnits="userSpaceOnUse" x1="943.7" y1="396" x2="944.1" y2="396.7" gradientTransform="matrix(84 0 0 -210 -78268 83433.102)"><stop offset="0" stop-color="#53A0FE"/><stop offset="1" stop-color="#0C64CA"/></linearGradient><path fill="url(#b)" d="M1020 52l61 22-84 188 23-210z"/><path fill="#3384E2" d="M997 262l94-58-10-130-84 188z"/><path fill="#0058BE" d="M1020 52L958-7h79l-17 59z"/><path fill="#004EA9" d="M1020 52l17-59 111-4-128 63z"/><linearGradient id="c" gradientUnits="userSpaceOnUse" x1="940.6" y1="397.5" x2="939.9" y2="396.8" gradientTransform="matrix(63 0 0 -126 -58125 50113.66)"><stop offset="0" stop-color="#0C63C9"/><stop offset=".3" stop-color="#0961C7"/><stop offset="1" stop-color="#035DC3"/></linearGradient><path fill="url(#c)" d="M1148-11l-2 126-61-95 63-31z"/><linearGradient id="d" gradientUnits="userSpaceOnUse" x1="941.2" y1="399.9" x2="940.4" y2="399.2" gradientTransform="matrix(65 0 0 -54 -60100 21639.14)"><stop offset="0" stop-color="#0C63C9"/><stop offset=".3" stop-color="#0961C7"/><stop offset="1" stop-color="#035DC3"/></linearGradient><path fill="url(#d)" d="M1085 20l-4 54-61-22 65-32z"/><path fill="#176CCF" d="M1081 74l65 41-61-95-4 54z"/><path fill="#0C63C9" d="M1081 74l3 43 61-3-64-40z"/><path fill="#3C91F5" d="M1091 203l55-89-62 3 7 86z"/><linearGradient id="e" gradientUnits="userSpaceOnUse" x1="947.3" y1="397.5" x2="947.8" y2="398.4" gradientTransform="matrix(120 0 0 -89 -112554 35589.992)"><stop offset="0" stop-color="#53A0FE"/><stop offset="1" stop-color="#2179DF"/></linearGradient><path fill="url(#e)" d="M1211 142l-66-28-54 89 120-61z"/><linearGradient id="f" gradientUnits="userSpaceOnUse" x1="941.1" y1="397.6" x2="940.3" y2="396.9" gradientTransform="matrix(65 0 0 -122 -59975 48561.02)"><stop offset="0" stop-color="#0C63C9"/><stop offset=".3" stop-color="#0961C7"/><stop offset="1" stop-color="#035DC3"/></linearGradient><path fill="url(#f)" d="M1210 142l-63-122-2 94 65 28z"/><path fill="#005BC4" d="M1147 22l44.2-34.2L1148-11l-1 33z"/><linearGradient id="g" gradientUnits="userSpaceOnUse" x1="933.9" y1="398.6" x2="933.6" y2="397.9" gradientTransform="matrix(44 0 0 -87 -39918 34670.172)"><stop offset="0" stop-color="#004EA9"/><stop offset="1" stop-color="#2179DF"/></linearGradient><path fill="url(#g)" d="M1147 21l26 52 18.2-85.2L1147 21z"/><path fill="#0C63C9" d="M1191.2-12.2L1210 142l-37-69 18.2-85.2z"/><path fill="#499AF9" d="M998 261l133.3 64.7L1091 203l-93 58z"/><linearGradient id="h" gradientUnits="userSpaceOnUse" x1="940.1" y1="397.9" x2="940.3" y2="398.3" gradientTransform="matrix(63 0 0 -92 -58119 36833.72)"><stop offset="0" stop-color="#6FAFFF"/><stop offset="1" stop-color="#499AF9"/></linearGradient><path fill="url(#h)" d="M1110 262l44-92-63 33 19 59z"/><linearGradient id="i" gradientUnits="userSpaceOnUse" x1="944.2" y1="399.2" x2="944.8" y2="400.1" gradientTransform="matrix(88 0 0 -57 -81957 22972.87)"><stop offset="0" stop-color="#499AF9"/><stop offset="1" stop-color="#2179DF"/></linearGradient><path fill="url(#i)" d="M1128 223l88-57-62 4-26 53z"/><path fill="#1F70D2" d="M1210 142l6 24-61 4 55-28z"/><path fill="#499AF9" d="M1216 166l-84.7 159.7L1129 222l87-56z"/><linearGradient id="j" gradientUnits="userSpaceOnUse" x1="946.8" y1="397.3" x2="946.4" y2="398" gradientTransform="matrix(109 0 0 -104 -101963 41580.64)"><stop offset="0" stop-color="#539BEE"/><stop offset="1" stop-color="#0C64CA"/></linearGradient><path fill="url(#j)" d="M1216 166l70 104-109-31 39-73z"/><linearGradient id="k" gradientUnits="userSpaceOnUse" x1="947.7" y1="398" x2="947.6" y2="398.4" gradientTransform="matrix(123 0 0 -87 -115379 34923.172)"><stop offset="0" stop-color="#75B5FF"/><stop offset="1" stop-color="#4C8AF0"/><stop offset="1" stop-color="#166ED4"/></linearGradient><path fill="url(#k)" d="M1131.3 325.7L1254 324l-77-85-45.7 86.7z"/><path fill="#499AF9" d="M1254 324l32-54-109-31 77 85z"/><path fill="#53A0FE" d="M998 261l112 231.7 22-166.7-134-65z"/><linearGradient id="l" gradientUnits="userSpaceOnUse" x1="932.8" y1="396.6" x2="932.8" y2="397.3" gradientTransform="matrix(42 0 0 -167 -38046 66681.97)"><stop offset="0" stop-color="#88BDFC"/><stop offset="1" stop-color="#6FAFFF"/></linearGradient><path fill="url(#l)" d="M1131.3 325.7L1151 449l-41 43.7 21.3-167z"/><path fill="#75B5FF" d="M1146.7 421.2L1254 324l-122.7 1.7 15.4 95.5z"/><path fill="#94C1F9" d="M1254 324l20.3 47.3-127.6 50L1254 324z"/><path fill="#6FAFFF" d="M998 261l-13.3 130.2L1076 420l-78-159z"/><linearGradient id="m" gradientUnits="userSpaceOnUse" x1="941.9" y1="398.3" x2="941.6" y2="399" gradientTransform="matrix(70 0 0 -74 -64854 29956.34)"><stop offset="0" stop-color="#87BCFF"/><stop offset="1" stop-color="#53A0FD"/></linearGradient><path fill="url(#m)" d="M1076 420l-35 48 69 24.7-34-72.7z"/><path fill="#87BDFF" d="M1041 468l-56.3-76.8L1076 420l-35 48z"/><linearGradient id="n" gradientUnits="userSpaceOnUse" x1="943.9" y1="398.2" x2="943.2" y2="397.4" gradientTransform="matrix(81 0 0 -97 -75461 38636.27)"><stop offset="0" stop-color="#0C63C9"/><stop offset=".3" stop-color="#0961C7"/><stop offset="1" stop-color="#035DC3"/></linearGradient><path fill="url(#n)" d="M939 90l19-97 62 59-81 38z"/><linearGradient id="o" gradientUnits="userSpaceOnUse" x1="952.8" y1="397.4" x2="952.7" y2="397.9" gradientTransform="matrix(335 0 0 -97 -318347 38636.27)"><stop offset="0" stop-color="#237ADD"/><stop offset="1" stop-color="#0C60C2"/></linearGradient><path fill="url(#o)" d="M939 90L623 73 958-7l-19 97z"/><linearGradient id="p" gradientUnits="userSpaceOnUse" x1="947.8" y1="397" x2="947.9" y2="397.6" gradientTransform="matrix(125 0 0 -114 -117922 45332.742)"><stop offset="0" stop-color="#499AF9"/><stop offset="1" stop-color="#0C63C9"/></linearGradient><path fill="url(#p)" d="M498-12l125 85-13-98.5L498-12z"/><linearGradient id="q" gradientUnits="userSpaceOnUse" x1="950.7" y1="398" x2="950.5" y2="400.1" gradientTransform="matrix(191 0 0 -54 -180683 21604.14)"><stop offset="0" stop-color="#53A0FE"/><stop offset="1" stop-color="#0656B4"/></linearGradient><path fill="url(#q)" d="M767 39l2-54 189 8-191 46z"/><linearGradient id="r" gradientUnits="userSpaceOnUse" x1="943.6" y1="397.8" x2="943.7" y2="398.5" gradientTransform="matrix(82 0 0 -83 -76743 33090.53)"><stop offset="0" stop-color="#277EE3"/><stop offset="1" stop-color="#065ABC"/></linearGradient><path fill="url(#r)" d="M694-10l-71 83-13-98.5L694-10z"/><path fill="#0C63C9" d="M694-10l73 49 2-54-75 5z"/><path fill="#2179DF" d="M881 119l-3-33 61 4-58 29z"/><linearGradient id="s" gradientUnits="userSpaceOnUse" x1="949.4" y1="397.1" x2="949.5" y2="398" gradientTransform="matrix(159 0 0 -114 -150267 45446.742)"><stop offset="0" stop-color="#51A1FF"/><stop offset="1" stop-color="#0C63C9"/></linearGradient><path fill="url(#s)" d="M623 73l64 112.5L782 80l-159-7z"/><linearGradient id="t" gradientUnits="userSpaceOnUse" x1="945.5" y1="396.5" x2="945.7" y2="396.8" gradientTransform="matrix(96 0 0 -216 -90039 85836.563)"><stop offset="0" stop-color="#51A1FF"/><stop offset="1" stop-color="#2B80E3"/></linearGradient><path fill="url(#t)" d="M782 80l-33.3 211.3L687 185.5 782 80z"/><linearGradient id="u" gradientUnits="userSpaceOnUse" x1="948.3" y1="397" x2="947.8" y2="396.1" gradientTransform="matrix(130 0 0 -209 -122447 83065.188)"><stop offset="0" stop-color="#2177DE"/><stop offset="1" stop-color="#5DA7FF"/></linearGradient><path fill="url(#u)" d="M748.7 291.3L878 86l-96-6-33.3 211.3z"/><path fill="#1973D8" d="M881 119l-24-2 21-31 3 33z"/><path fill="#1973D8" d="M998 260L857 117l24 2 117 141z"/><linearGradient id="v" gradientUnits="userSpaceOnUse" x1="948.6" y1="396.5" x2="949.2" y2="396" gradientTransform="matrix(142 0 0 -274 -133798 108836.344)"><stop offset="0" stop-color="#0C63C9"/><stop offset="1" stop-color="#499AF9"/></linearGradient><path fill="url(#v)" d="M857 117l127.7 274.2L999 256 857 117z"/><path fill="#72B3FF" d="M984.7 391.2L974 517l67-49-56.3-76.8z"/><linearGradient id="w" gradientUnits="userSpaceOnUse" x1="947.2" y1="396.8" x2="946.3" y2="396" gradientTransform="matrix(109 0 0 -273 -102392 108440.43)"><stop offset="0" stop-color="#0C63C9"/><stop offset="1" stop-color="#6FAFFF"/></linearGradient><path fill="url(#w)" d="M763 390l94-273-108.3 174.3L763 390z"/><path fill="#53A0FE" d="M802.4 487L847 633.5 791 553l11.4-66z"/><linearGradient id="x" gradientUnits="userSpaceOnUse" x1="949.9" y1="397.5" x2="949.9" y2="396.5" gradientTransform="matrix(172 0 0 -149 -162503 59715.59)"><stop offset="0" stop-color="#3F96FC"/><stop offset="1" stop-color="#5DA7FF"/></linearGradient><path fill="url(#x)" d="M802.4 487L974 517 847 633.5 802.4 487z"/><linearGradient id="y" gradientUnits="userSpaceOnUse" x1="950.8" y1="397.3" x2="950.8" y2="396.3" gradientTransform="matrix(204 0 0 -170 -193117 67862.703)"><stop offset="0" stop-color="#499AF9"/><stop offset="1" stop-color="#6FAFFF"/></linearGradient><path fill="url(#y)" d="M748 431l204-113-149.6 169-54.4-56z"/><linearGradient id="z" gradientUnits="userSpaceOnUse" x1="950.8" y1="395.9" x2="950.9" y2="396.5" gradientTransform="matrix(204 0 0 -314 -193117 124672.742)"><stop offset="0" stop-color="#6FAFFF"/><stop offset="1" stop-color="#2179DF"/></linearGradient><path fill="url(#z)" d="M857 117l95 201-204 113 109-314z"/><linearGradient id="A" gradientUnits="userSpaceOnUse" x1="950.3" y1="397.3" x2="950.3" y2="396.3" gradientTransform="matrix(182 0 0 -169 -172052 67466.79)"><stop offset="0" stop-color="#4F9FFF"/><stop offset="1" stop-color="#6FAFFF"/></linearGradient><path fill="url(#A)" d="M952 318l32.7 73.2L802.4 487 952 318z"/><linearGradient id="B" gradientUnits="userSpaceOnUse" x1="950.3" y1="397.8" x2="950.3" y2="396.8" gradientTransform="matrix(183 0 0 -126 -173008 50515.66)"><stop offset="0" stop-color="#3088EE"/><stop offset="1" stop-color="#51A1FF"/></linearGradient><path fill="url(#B)" d="M984.7 391.2L974 517l-171.6-30 182.3-95.8z"/><linearGradient id="C" gradientUnits="userSpaceOnUse" x1="948.9" y1="398" x2="948.8" y2="398.4" gradientTransform="matrix(144 0 0 -83 -135942 33090.53)"><stop offset="0" stop-color="#2D7FDF"/><stop offset="1" stop-color="#0758BA"/></linearGradient><path fill="url(#C)" d="M694-10l-71 83 144-34-73-49z"/><path fill="#75B5FF" d="M1129 222l2.3 103.7L1110 262l19-40z"/><path fill="#0053B4" d="M1191.2-12.2L1346-7.5 1210 142l-18.8-154.2z"/><path fill="#1973D8" d="M1210 142l6 24 39-74-45 50z"/><linearGradient id="D" gradientUnits="userSpaceOnUse" x1="941.9" y1="397.2" x2="941.9" y2="396.4" gradientTransform="matrix(70 0 0 -180 -64679 71593.797)"><stop offset="0" stop-color="#53A0FE"/><stop offset="1" stop-color="#0C63C9"/></linearGradient><path fill="url(#D)" d="M1256 90l30 180-70-104 40-76z"/><path fill="#0C63C9" d="M1256 90l90-97.5-60 277.5-30-180z"/><path fill="#68ABFB" d="M1286 270l-32 54 20.3 47.3L1286 270z"/><path fill="#75B5FF" d="M1286 270l95 161-106.7-59.7L1286 270z"/><path fill="#0051AF" d="M1346-7.5l53 42.5 20.7-44.7-73.7 2.2z"/><linearGradient id="E" gradientUnits="userSpaceOnUse" x1="947.7" y1="398.1" x2="948.1" y2="397.6" gradientTransform="matrix(130.073 0 0 -93.0002 -121938.79 37051.727)"><stop offset="0" stop-color="#004EAA"/><stop offset="1" stop-color="#0C63C9"/></linearGradient><path fill="url(#E)" d="M1346-7.5L1326 85l130-4-110-88.5z"/><linearGradient id="F" gradientUnits="userSpaceOnUse" x1="949.5" y1="396.6" x2="950" y2="397.1" gradientTransform="matrix(170 0 0 -189 -160109 75147.992)"><stop offset="0" stop-color="#2179DF"/><stop offset="1" stop-color="#0961C7"/></linearGradient><path fill="url(#F)" d="M1456 81l-170 189 40-185 130-4z"/><path fill="#0F66CC" d="M1456 81l-36.3-90.7L1399 35l57 46z"/><linearGradient id="G" gradientUnits="userSpaceOnUse" x1="950.3" y1="396.4" x2="949.7" y2="395.8" gradientTransform="matrix(170 0 0 -350 -160109 138889.5)"><stop offset="0" stop-color="#0961C7"/><stop offset="1" stop-color="#499AF9"/></linearGradient><path fill="url(#G)" d="M1456 81l-75 350-95-161 170-189z"/><linearGradient id="H" gradientUnits="userSpaceOnUse" x1="936.4" y1="397" x2="935.8" y2="396.7" gradientTransform="matrix(49 0 0 -175 -44442 69796.25)"><stop offset="0" stop-color="#8FC2FF"/><stop offset="1" stop-color="#499AF9"/></linearGradient><path fill="url(#H)" d="M1447 414l-32-142-17 175.5 49-33.5z"/><linearGradient id="I" gradientUnits="userSpaceOnUse" x1="927.9" y1="397.3" x2="927.1" y2="396.3" gradientTransform="matrix(34 0 0 -176 -30134 70192.164)"><stop offset="0" stop-color="#88BDFF"/><stop offset="1" stop-color="#53A0FE"/></linearGradient><path fill="url(#I)" d="M1415 272l-34 159 17 16.5 17-175.5z"/><path fill="#0055BA" d="M1419.7-9.7L1514-6l-58 87-36.3-90.7z"/><path fill="#3C92F2" d="M1456 81l-9 333-32-142 41-191z"/><path fill="#025AC0" d="M1456 81l266-43.5L1514-6l-58 87z"/><path fill="#2179DF" d="M1456 81l-2 75 119-94-117 19z"/><path fill="#53A0FE" d="M1514 108l-65 216 5-169 60-47z"/><path fill="#0961C7" d="M1722 38l58.8-45.2L1514-6l208 44z"/><path fill="#7EB6FA" d="M1449 323l91 91h-93l2-91z"/><path fill="#3C91F5" d="M1514 108l26 306-91-90 65-216z"/><path fill="#0C64CA" d="M1514 108l59-46 149-25-208 71z"/><path fill="#0C63C9" d="M1514 108l7 84 82-115-89 31z"/><path fill="#53A0FE" d="M1540 414l66-145-85-77 19 222z"/><path fill="#75B5FF" d="M1606 268l-13 160-53-14 66-146z"/><linearGradient id="J" gradientUnits="userSpaceOnUse" x1="944.3" y1="396.5" x2="944.6" y2="397.1" gradientTransform="matrix(85 0 0 -192 -78699 76331.72)"><stop offset="0" stop-color="#499AF9"/><stop offset="1" stop-color="#025AC0"/></linearGradient><path fill="url(#J)" d="M1606 269l-85-77 82-115 3 192z"/><path fill="#0961C7" d="M1606 269l116-192h-119l3 192z"/><path fill="#025AC0" d="M1720 37l2 40h-118l116-40z"/><path fill="#B5D7FF" d="M1593 428l142-103-88.5 202.5L1593 428z"/><path fill="#A2CDFF" d="M1678 454v92l-31.5-18.5L1678 454z"/><path fill="#B5D7FF" d="M1678 453l92.7 58.3L1678 546v-93z"/><path fill="#8DC0FF" d="M1735 325l35.7 186.3L1678 453l57-128z"/><path fill="#499AF9" d="M1735 325l-129-56-13 159 142-103z"/><path fill="#1973D8" d="M1735 325l-13-248-116 192 129 56z"/><linearGradient id="K" gradientUnits="userSpaceOnUse" x1="945.3" y1="396.2" x2="944.8" y2="396.9" gradientTransform="matrix(93 0 0 -209 -86125 83310.188)"><stop offset="0" stop-color="#97C5FF"/><stop offset="1" stop-color="#6FAFFF"/></linearGradient><path fill="url(#K)" d="M1827.5 533.5L1735 325l35.7 186.3 56.8 22.2z"/><path fill="#6BAEFF" d="M1962 402l-194-1 59.5 132.5L1962 402z"/><path fill="#53A0FE" d="M1735 325l227 77-194-1-33-76z"/><linearGradient id="L" gradientUnits="userSpaceOnUse" x1="939.9" y1="396.2" x2="939.8" y2="396.5" gradientTransform="matrix(61 0 0 -333 -55580 132070.03)"><stop offset="0" stop-color="#53A0FE"/><stop offset="1" stop-color="#0C64CA"/></linearGradient><path fill="url(#L)" d="M1780.8-7.2L1735 325l-15-288 60.8-44.2z"/><linearGradient id="M" gradientUnits="userSpaceOnUse" x1="947.9" y1="395.7" x2="947.7" y2="396.1" gradientTransform="matrix(127 0 0 -375 -118595 148699.25)"><stop offset="0" stop-color="#6FAFFF"/><stop offset="1" stop-color="#0C63C9"/></linearGradient><path fill="url(#M)" d="M1780.8-7.2L1862 368l-127-43 45.8-332.2z"/><path fill="#025AC0" d="M1810 130l85-141-114.2 3.8L1810 130z"/><path fill="#0055B8" d="M1810 130l18 82 27-157-45 75z"/><path fill="#499AF9" d="M1828 212l134 190-100-34-34-156z"/><path fill="#1973D8" d="M1828 212l27-157 107 347-134-190z"/><path fill="#0050AD" d="M1880 136l15-147-40 66 25 81z"/><path fill="#0C63C9" d="M1880 136L2012-6l-117-5-15 147z"/><path fill="#1973D8" d="M1962 402l12-367-94 101 82 266z"/><linearGradient id="N" gradientUnits="userSpaceOnUse" x1="942" y1="397" x2="942" y2="396" gradientTransform="matrix(71 0 0 -213 -64883 84603.828)"><stop offset="0" stop-color="#499AF9"/><stop offset="1" stop-color="#0961C7"/></linearGradient><path fill="url(#N)" d="M2038 213l-64-178-7 213 71-35z"/><path fill="#0C63C9" d="M2038 213L2012-6l-38 41 64 178z"/><path fill="#004DA7" d="M2038 213L2151-5l-139-1 26 219z"/><path fill="#0C63C9" d="M2151-5l-28 54 37.8 87.5L2151-5z"/><path fill="#1973D8" d="M2123 49l-43 83 57-50-14-33z"/><path fill="#53A0FE" d="M2080 132l80.8 4.5L2137 82l-57 50z"/><path fill="#6FAFFF" d="M2080 132l-42 81 122.8-76.5-80.8-4.5z"/><path fill="#53A0FE" d="M2160.8 136.5L2080 318l-42-105 122.8-76.5z"/><path fill="#68ABFB" d="M2086 366l74.8-229.5L2080 318l6 48z"/><path fill="#ABD0FA" d="M2086 366l15 32 11-113-26 81z"/><path fill="#6FAFFF" d="M2112 285l40 170-51-57 11-113z"/><path fill="#75B5FF" d="M2112 285l48.8-148.5L2152 455l-40-170z"/></svg>
