<svg xmlns="http://www.w3.org/2000/svg" width="100" height="154" viewBox="0 0 100 154"><path fill="#00BCB4" d="M0 28h100v126h-100z"/><path fill="#fff" d="M0 0h100v28h-100z"/><path fill="#231F20" d="M81 38c5.5 0 10-4.5 10-10s-4.5-10-10-10-10 4.5-10 10 4.5 10 10 10"/><path fill="#ECE6D4" d="M17 17.6c0 1.4-1.1 2.5-2.5 2.5s-2.5-1.1-2.5-2.5 1.1-2.5 2.5-2.5 2.5 1.1 2.5 2.5"/><g fill="#8E7F33"><path d="M13.4 18.7c-.2-.2-.4-.2-.6-.2 0 .1.1.3.3.4.3.2.7.2.7.2s-.2-.1-.4-.4M15.2 17.3c-.5.2-.8.5-1 .9.2 0 .9.1 1.2 0 .7-.2 1.2-.9 1.2-.9s-.8-.1-1.4 0M14.3 18.4c-.4-.1-.6 0-.9.2.2.1.5.3.8.3.5.1 1.1-.1 1.1-.1s-.5-.3-1-.4M15.7 16.3c-.2.6-.6.8-1 1 0-.3 0-.8.1-1.2.2-.7.9-1.3.9-1.3s.2.9 0 1.5M14.4 17.4c-.1.4-.3.6-.5.7v-.8c.1-.4.4-.9.4-.9s.2.5.1 1M13.7 18c-.1.3-.2.4-.4.5v-.6c.1-.3.3-.6.3-.6s.2.3.1.7"/></g><g fill="#241F21"><path d="M20.2 16.9l-.1-.3-.1.3-.3.8h.9l-.4-.8zm.4 2.1v-.2h.4l-.3-.8h-1.1l-.3.7.1.2h.2v.2h-.9v-.2h.3l1.2-2.7h.2l1.1 2.7h.2v.2h-1.1zM24.9 18.8c.4 0 .6-.2.6-.6 0-.4-.2-.6-.7-.6h-.3v1.1l.4.1m.2-1.4c.2-.1.3-.3.3-.6 0-.4-.2-.5-.5-.5h-.3v1.1h.5zm-1.4 1.6v-.2h.4v-2.5h-.4v-.2h1.2c.6 0 1 .3 1 .7 0 .3-.2.5-.5.6h-.2.2c.4.1.6.3.6.7 0 .5-.5.8-1.1.8h-1.2zM29.1 17.5c0-.8-.4-1.2-1-1.2s-1 .4-1 1.3c0 .8.4 1.2 1 1.2.5 0 1-.5 1-1.3m-2.5 0c0-.9.7-1.5 1.5-1.5s1.5.6 1.5 1.5-.7 1.5-1.5 1.5c-.9 0-1.5-.6-1.5-1.5M32.4 17.5c0-.8-.4-1.2-1-1.2s-1 .4-1 1.3c0 .8.4 1.2 1 1.2s1-.5 1-1.3m-2.5 0c0-.9.7-1.5 1.5-1.5s1.5.6 1.5 1.5-.7 1.5-1.5 1.5-1.5-.6-1.5-1.5"/><path d="M35.5 18.9l-1.1-1.3h-.2v1.2h.3v.2h-1.2v-.2h.4v-2.5h-.4v-.2h1.2v.2h-.3v1.1h.2l1-1v-.1h-.2v-.2h1v.2h-.2l-1.1 1.1 1.2 1.4h.3v.2h-.9zM39.5 16.9l-.1-.3-.1.3-.3.8h.9l-.4-.8zm.4 2v-.2h.4l-.3-.8h-1.1l-.3.7.1.2h.2v.2h-.9v-.2h.2l1.2-2.7h.2l1.1 2.7h.3v.2h-1.1zM42.2 17.5h.3c.4 0 .6-.2.6-.7 0-.4-.2-.6-.6-.6h-.3v1.3zm-.8 1.4v-.2h.4v-2.5h-.4v-.2h1.2c.7 0 1 .3 1 .8s-.4.9-1.1.9h-.3v1h.4v.2h-1.2zM45.2 16.9l-.1-.3-.1.3-.3.8h.9l-.4-.8zm.4 2v-.2h.4l-.3-.8h-1.1l-.3.7.1.2h.2v.2h-.9v-.2h.2l1.2-2.7h.2l1.1 2.7h.2v.2h-1zM48.3 17.5c.2-.1.4-.3.4-.6 0-.4-.2-.6-.6-.6h-.3v1.2h.5zm.7 1.4l-.9-1.2-.3-.1v1.1h.3v.2h-1.1v-.2h.4v-2.5h-.4v-.2h1.2c.6 0 1 .3 1 .8 0 .4-.3.7-.7.8.1.1.3.2.4.4l.6.7h.2v.2h-.7zM52.4 16h-2.5l-.1.6h.2l.1-.2c0-.1.1-.1.1-.1h.6v2.5h-.4v.2h1.2v-.2h-.4v-2.5h.8s.1 0 .1.1l.1.2h.2v-.6z"/></g><path d="M12 88h72v.5h-72zM12 127h72v.5h-72z"/><g fill="#fff"><path d="M15.5 98.4c-.1.4-.4.9-.7 1l1.2 7.5h-1.2l-1.1-7.2h-.6v7.2h-1.1v-15.2h1.8c1 0 1.5.6 1.8 1.6.1.4.2 1.3.2 2.5-.1 1.3-.2 2.1-.3 2.6zm-1.1-4.5c0-.6-.3-1-.7-1h-.6v5.8h.6c.3 0 .5-.3.5-.5.1-.4.2-1.5.2-2.1.1-.9 0-2.1 0-2.2zM16.9 106.9v-15.2h3.4v1.1h-2.3v5.8h2v1.1h-2v6h2.2v1.1h-3.3zM22.6 107c-1.2 0-1.9-.7-1.9-1.9v-2.1h1.1v1.9c0 .8.3 1.1.8 1.1s.8-.3.8-1.6c0-1.7-.2-2.8-.9-4.3l-.7-1.5c-.8-1.5-1.1-2.6-1.1-4.3 0-1.7.7-2.6 2-2.6 1.4 0 1.9 1 1.9 2.5v1.7h-1.2v-1.7c0-.9-.2-1.4-.8-1.4-.6 0-.8.4-.8 1.6 0 1.2.3 2.3 1 3.6l.7 1.4c.7 1.5 1 2.9 1 4.8.1 2.1-.6 2.8-1.9 2.8zM28.8 99.7c-.3.5-.8.8-1.4.8h-.7v6.3h-1.2v-15.1h1.9c.7 0 1.1.3 1.4.9.3.5.5 1.7.5 3.6 0 1.9-.1 2.9-.5 3.5zm-1-6.2c-.2-.5-.5-.6-.7-.6h-.4v6.5h.4c.5 0 .7-.3.8-.7.2-.4.2-1.1.2-2.6s-.1-2.3-.3-2.6zM34.3 94.2v10.3c-.1 1.7-.7 2.5-2.1 2.5-1.4 0-2-.8-2-2.5v-10.3c0-1.7.6-2.6 2-2.6s2 .8 2.1 2.6zm-1.2 10.5v-10.600000000000001c0-.9-.2-1.3-.8-1.3-.7 0-.8.5-.8 1.3v10.600000000000001c0 .6.2 1.1.8 1.1.5.1.7-.5.8-1.1zM38 106.9l-1.5-9.9v9.9h-1.1v-15.2h1.3l1.5 10.8v-10.8h1.1v15.2h-1.3zM42.1 107c-1.2 0-1.9-.7-1.9-1.9v-2.1h1.1v1.9c0 .8.3 1.1.8 1.1s.8-.3.8-1.6c0-1.7-.2-2.8-.9-4.3l-.7-1.5c-.8-1.5-1.1-2.6-1.1-4.3 0-1.7.7-2.6 2-2.6 1.4 0 1.9 1 1.9 2.5v1.7h-1.2v-1.7c0-.9-.2-1.4-.8-1.4-.6 0-.8.4-.8 1.6 0 1.2.3 2.3 1 3.6l.7 1.4c.7 1.5 1 2.9 1 4.8.1 2.1-.7 2.8-1.9 2.8zM45 106.9v-15.2h1.2v15.2h-1.2zM49.8 106.9h-2.3v-15.2h2.2c.8 0 1.5.4 1.6 1.2.1.4.1 1.8.1 2.5 0 .8 0 2.2-.1 2.6-.1.7-.3 1.1-.8 1.2.5.1.8.4.9 1 .1.6.1 1.7.1 2.5 0 .9 0 2.3-.1 2.9-.3.9-.6 1.3-1.6 1.3zm.3-13.2c0-.5-.3-.9-.7-.9h-.8v5.9h1c.2 0 .5-.2.5-.7v-2.3c.1-.8 0-1.6 0-2zm.1 8.9v-2.1c0-.5-.2-.7-.5-.7h-1.1v6h1c.3 0 .5-.2.6-.7v-2.5zM52.6 106.9v-15.2h1.2v14.1h2.2v1.1h-3.4zM56.8 106.9v-15.2h3.4v1.1h-2.2v5.8h2v1.1h-2v6h2.2v1.1h-3.4zM15.5 115.4c-.1.4-.4.9-.7 1l1.2 7.5h-1.2l-1.1-7.2h-.6v7.2h-1.1v-15.2h1.8c1 0 1.5.6 1.8 1.6.1.4.2 1.3.2 2.5-.1 1.3-.2 2.1-.3 2.6zm-1.1-4.5c0-.6-.3-1-.7-1h-.6v5.8h.6c.3 0 .5-.3.5-.5.1-.4.2-1.5.2-2.1.1-.9 0-2.1 0-2.2zM16.9 123.9v-15.2h3.4v1.1h-2.3v5.8h2v1.1h-2v6h2.2v1.1h-3.3zM22.6 124c-1.2 0-1.9-.7-1.9-1.9v-2.1h1.1v1.9c0 .8.3 1.1.8 1.1s.8-.3.8-1.6c0-1.7-.2-2.8-.9-4.3l-.7-1.5c-.8-1.5-1.1-2.6-1.1-4.3 0-1.7.7-2.6 2-2.6 1.4 0 1.9 1 1.9 2.5v1.7h-1.2v-1.7c0-.9-.2-1.4-.8-1.4-.6 0-.8.4-.8 1.6 0 1.2.3 2.3 1 3.6l.7 1.4c.7 1.5 1 2.9 1 4.8.1 2.1-.6 2.8-1.9 2.8zM28.8 116.7c-.3.5-.8.8-1.4.8h-.7v6.3h-1.2v-15.2h1.9c.7 0 1.1.3 1.4.9.3.5.5 1.7.5 3.6 0 2-.1 3-.5 3.6zm-1-6.2c-.2-.5-.5-.6-.7-.6h-.4v6.5h.4c.5 0 .7-.3.8-.7.2-.4.2-1.1.2-2.6s-.1-2.3-.3-2.6zM34.3 111.2v10.3c-.1 1.7-.7 2.5-2.1 2.5-1.4 0-2-.8-2-2.5v-10.3c0-1.7.6-2.6 2-2.6s2 .8 2.1 2.6zm-1.2 10.5v-10.600000000000001c0-.9-.2-1.3-.8-1.3-.7 0-.8.5-.8 1.3v10.600000000000001c0 .6.2 1.1.8 1.1.5.1.7-.5.8-1.1zM38 123.9l-1.5-9.9v9.9h-1.1v-15.2h1.3l1.5 10.8v-10.8h1.1v15.2h-1.3zM42.1 124c-1.2 0-1.9-.7-1.9-1.9v-2.1h1.1v1.9c0 .8.3 1.1.8 1.1s.8-.3.8-1.6c0-1.7-.2-2.8-.9-4.3l-.7-1.5c-.8-1.5-1.1-2.6-1.1-4.3 0-1.7.7-2.6 2-2.6 1.4 0 1.9 1 1.9 2.5v1.7h-1.2v-1.7c0-.9-.2-1.4-.8-1.4-.6 0-.8.4-.8 1.6 0 1.2.3 2.3 1 3.6l.7 1.4c.7 1.5 1 2.9 1 4.8.1 2.1-.7 2.8-1.9 2.8zM45 123.9v-15.2h1.2v15.2h-1.2zM49.9 123.9h-1.4l-1.5-15.2h1.2l1.1 12.5 1.1-12.5h1.2l-1.7 15.2zM52.2 123.9v-15.2h3.4v1.1h-2.2v5.8h2v1.1h-2v6h2.2v1.1h-3.4zM60.7 123.9h-2v-15.2h1.7c1.2 0 1.8.6 2 1.5.1.7.2 2.5.2 5.7 0 1.7 0 5.7-.2 6.4-.1.9-.5 1.6-1.7 1.6zm.7-7.9v-4.9c0-.8-.4-1.2-.9-1.2h-.6v13h.8c.3 0 .7-.2.7-.9v-6zM63.6 123.9v-15.2h3.4v1.1h-2.2v5.8h2v1.1h-2v6h2.2v1.1h-3.4zM69.4 124c-1.2 0-1.9-.7-1.9-1.9v-2.1h1.1v1.9c0 .8.3 1.1.8 1.1s.8-.3.8-1.6c0-1.7-.2-2.8-.9-4.3l-.7-1.5c-.8-1.5-1.1-2.6-1.1-4.3 0-1.7.7-2.6 2-2.6 1.4 0 1.9 1 1.9 2.5v1.7h-1.2v-1.7c0-.9-.2-1.4-.8-1.4-.6 0-.8.4-.8 1.6 0 1.2.3 2.3 1 3.6l.7 1.4c.7 1.5 1 2.9 1 4.8.1 2.1-.7 2.8-1.9 2.8zM72.3 123.9v-15.2h1.2v15.2h-1.2zM77.7 123.9l-.1-.5c-.2.4-.7.6-1.2.6-1 0-1.7-.6-1.8-2 0-.4-.1-4.3-.1-5.7v-5.5c0-1.3.6-2.2 1.9-2.2 1.3 0 1.8 1 1.8 1.9v2.9h-1.2v-2.6c0-.8-.2-1-.7-1-.4 0-.7.3-.7 1.1v10.8c0 .7.2 1.1.7 1.1.5 0 .7-.3.7-1v-4.8h-1v-1.1h2.1v8.1h-.4zM82.1 123.9l-1.5-9.9v9.9h-1.1v-15.2h1.3l1.5 10.8v-10.8h1.1v15.2h-1.3z"/></g><g fill="#fff"><path d="M12.1 85.2l-.1-.7.3-.1.2.3c.1 0 .3.1.5.1.3 0 .6-.2.6-.5 0-.6-1.4-.5-1.4-1.6 0-.6.4-1 1.1-1 .2 0 .4.1.5.1v-.1h.4v.7l-.3.1-.1-.3c-.1 0-.2-.1-.4-.1-.3 0-.5.2-.5.4 0 .6 1.4.5 1.4 1.6 0 .6-.5 1-1.1 1-.2 0-.4-.1-.5-.1v.1h-.6zM16.5 84.6c-.2.3-.5.6-.9.6-.6 0-1.1-.4-1.1-1.1 0-.7.5-1.2 1.2-1.2.6 0 .8.2.8.5s-.2.4-.5.4h-.1l-.1-.5h-.2c-.2 0-.5.2-.5.8 0 .5.3.8.7.8.2 0 .4-.1.6-.2l.1-.1zM16.8 84c0-.7.6-1.2 1.2-1.2.7 0 1.2.5 1.2 1.2s-.6 1.2-1.2 1.2c-.7 0-1.2-.5-1.2-1.2zm1.2-.9c-.3 0-.5.3-.5.9 0 .5.2.9.5.9s.5-.3.5-.9c0-.5-.2-.9-.5-.9zM20.3 85.2c-.4 0-.6-.2-.6-.6v-1.4h-.3v-.2h.3v-.4l.7-.2v.6h.6v.2h-.6v1.5c0 .1.1.1.2.1l.3-.1v.2c-.1.1-.4.3-.6.3zM21.9 85.2c-.4 0-.6-.2-.6-.6v-1.4h-.3v-.2h.3v-.4l.7-.2v.6h.6v.2h-.6v1.5c0 .1.1.1.2.1l.3-.1v.2c-.1.1-.3.3-.6.3zM24.1 86.1l.2-1.1v-2.8h-.3v-.2h1.4v.2h-.4v2.4c0 .4 0 .6-.3 1l-.4.6h-.2zM27.6 84.6c-.2.3-.5.6-.9.6-.7 0-1.1-.4-1.1-1.1 0-.7.5-1.2 1.1-1.2.6 0 .9.3.9.8v.2h-1.4v.1c0 .4.3.7.7.7.2 0 .4-.1.6-.2l.1.1zm-.6-1v-.4c0-.1 0-.1-.1-.1h-.5l-.2.4h.8zM29.4 85.1v-.2h.3v-1.4c-.1-.1-.2-.1-.3-.1-.2 0-.3 0-.5.1v1.4h.1v.2h-1.2v-.2h.3v-2.8l-.3-.3v-.1l.9-.2h.1v1.8c.3-.3.6-.4.8-.4.4 0 .7.2.7.7v1.3h.3v.2h-1.2zM30.7 85.1v-.2h.3v-2.8l-.3-.3v-.1l.9-.2h.1v3.3h.3v.2h-1.3z"/></g><g fill="#fff"><path d="M76.2 32.2v-.6h1.4v-7h-1.4v-.6h.8l1.7-.2.1.1-.1.9v6.8h1.1v.6h-3.6zM82.3 31.6c.1.1.4.1.8.1.9 0 1.6-.6 1.6-1.8 0-1.1-.7-1.7-2-1.7h-.5c-.1-.1-.1-.3-.1-.4v-.4h.6c1.2 0 1.9-.6 1.9-1.8 0-1.1-.6-1.5-1.3-1.5-.3 0-.5.1-.7.1l-.4 1.4h-.2c-.4 0-.7-.2-.7-.7 0-.7.7-1.4 2.1-1.4 1.5 0 2.4.8 2.4 2 0 1.1-.8 2-2.2 2.1 1.6.2 2.4 1 2.4 2.2 0 1.2-1.1 2.3-2.9 2.3-1.5 0-2.1-.6-2.1-1.3 0-.5.3-.7.7-.7h.2l.4 1.5z"/></g></svg>