<?xml version="1.0" encoding="utf-8"?>
<!-- Generator: Adobe Illustrator 18.0.0, SVG Export Plug-In . SVG Version: 6.00 Build 0)  -->
<!DOCTYPE svg PUBLIC "-//W3C//DTD SVG 1.1//EN" "http://www.w3.org/Graphics/SVG/1.1/DTD/svg11.dtd">
<svg version="1.1" id="Capa_1" xmlns:sketch="http://www.bohemiancoding.com/sketch/ns"
	 xmlns="http://www.w3.org/2000/svg" xmlns:xlink="http://www.w3.org/1999/xlink" x="0px" y="0px" viewBox="0 0 2151 637"
	 enable-background="new 0 0 2151 637" xml:space="preserve">
<title>Artboard 1</title>
<desc>Created with Sketch.</desc>
<g id="Page-1" sketch:type="MSPage">
	<g id="Artboard-1" sketch:type="MSArtboardGroup">
		
			<linearGradient id="Path-2_1_" gradientUnits="userSpaceOnUse" x1="949.0548" y1="396.0919" x2="948.6743" y2="397.0249" gradientTransform="matrix(141 0 0 -210 -132821 83433.1016)">
			<stop  offset="0" style="stop-color:#53A0FE"/>
			<stop  offset="1" style="stop-color:#0C64CA"/>
		</linearGradient>
		<path id="Path-2" sketch:type="MSShapeGroup" fill="url(#Path-2_1_)" d="M1020,52l-141,66l118,144L1020,52z"/>
		
			<linearGradient id="Path-3_1_" gradientUnits="userSpaceOnUse" x1="943.7343" y1="396.037" x2="944.1031" y2="396.7031" gradientTransform="matrix(84 0 0 -210 -78268 83433.1016)">
			<stop  offset="0" style="stop-color:#53A0FE"/>
			<stop  offset="1" style="stop-color:#0C64CA"/>
		</linearGradient>
		<path id="Path-3" sketch:type="MSShapeGroup" fill="url(#Path-3_1_)" d="M1020,52l61,22l-84,188L1020,52z"/>
		<path id="Path-4" sketch:type="MSShapeGroup" fill="#3384E2" d="M997,262l94-58l-10-130L997,262z"/>
		<path id="Path-5" sketch:type="MSShapeGroup" fill="#0058BE" d="M1020,52L958-7h79L1020,52z"/>
		<path id="Path-6" sketch:type="MSShapeGroup" fill="#004EA9" d="M1020,52l17-59l111-4L1020,52z"/>
		
			<linearGradient id="Path-7_1_" gradientUnits="userSpaceOnUse" x1="940.6404" y1="397.4905" x2="939.8823" y2="396.7715" gradientTransform="matrix(63 0 0 -126 -58125 50113.6602)">
			<stop  offset="0" style="stop-color:#0C63C9"/>
			<stop  offset="0.3301" style="stop-color:#0961C7"/>
			<stop  offset="1" style="stop-color:#035DC3"/>
		</linearGradient>
		<path id="Path-7" sketch:type="MSShapeGroup" fill="url(#Path-7_1_)" d="M1148-11l-2,126l-61-95L1148-11z"/>
		
			<linearGradient id="Path-8_1_" gradientUnits="userSpaceOnUse" x1="941.1863" y1="399.9464" x2="940.4282" y2="399.2274" gradientTransform="matrix(65 0 0 -54 -60100 21639.1406)">
			<stop  offset="0" style="stop-color:#0C63C9"/>
			<stop  offset="0.3301" style="stop-color:#0961C7"/>
			<stop  offset="1" style="stop-color:#035DC3"/>
		</linearGradient>
		<path id="Path-8" sketch:type="MSShapeGroup" fill="url(#Path-8_1_)" d="M1085,20l-4,54l-61-22L1085,20z"/>
		<path id="Path-9" sketch:type="MSShapeGroup" fill="#176CCF" d="M1081,74l65,41l-61-95L1081,74z"/>
		<path id="Path-10" sketch:type="MSShapeGroup" fill="#0C63C9" d="M1081,74l3,43l61-3L1081,74z"/>
		<path id="Path-11" sketch:type="MSShapeGroup" fill="#3C91F5" d="M1091,203l55-89l-62,3L1091,203z"/>
		
			<linearGradient id="Path-12_1_" gradientUnits="userSpaceOnUse" x1="947.3249" y1="397.4778" x2="947.7648" y2="398.4451" gradientTransform="matrix(120 0 0 -89 -112554 35589.9922)">
			<stop  offset="0" style="stop-color:#53A0FE"/>
			<stop  offset="1" style="stop-color:#2179DF"/>
		</linearGradient>
		<path id="Path-12" sketch:type="MSShapeGroup" fill="url(#Path-12_1_)" d="M1211,142l-66-28l-54,89L1211,142z"/>
		
			<linearGradient id="Path-13_1_" gradientUnits="userSpaceOnUse" x1="941.0602" y1="397.6021" x2="940.3021" y2="396.8831" gradientTransform="matrix(65 0 0 -122 -59975 48561.0195)">
			<stop  offset="0" style="stop-color:#0C63C9"/>
			<stop  offset="0.3301" style="stop-color:#0961C7"/>
			<stop  offset="1" style="stop-color:#035DC3"/>
		</linearGradient>
		<path id="Path-13" sketch:type="MSShapeGroup" fill="url(#Path-13_1_)" d="M1210,142l-63-122l-2,94L1210,142z"/>
		<path id="Path-14" sketch:type="MSShapeGroup" fill="#005BC4" d="M1147,22l44.2-34.2L1148-11L1147,22z"/>
		
			<linearGradient id="Path-15_1_" gradientUnits="userSpaceOnUse" x1="933.8559" y1="398.5957" x2="933.5657" y2="397.8992" gradientTransform="matrix(44 0 0 -87 -39918 34670.1719)">
			<stop  offset="0" style="stop-color:#004EA9"/>
			<stop  offset="1" style="stop-color:#2179DF"/>
		</linearGradient>
		<path id="Path-15" sketch:type="MSShapeGroup" fill="url(#Path-15_1_)" d="M1147,21l26,52l18.2-85.2L1147,21z"/>
		<path id="Path-16" sketch:type="MSShapeGroup" fill="#0C63C9" d="M1191.2-12.2L1210,142l-37-69L1191.2-12.2z"/>
		<path id="Path-17" sketch:type="MSShapeGroup" fill="#499AF9" d="M998,261l133.3,64.7L1091,203L998,261z"/>
		
			<linearGradient id="Path-18_1_" gradientUnits="userSpaceOnUse" x1="940.1134" y1="397.8857" x2="940.3157" y2="398.2883" gradientTransform="matrix(63 0 0 -92 -58119 36833.7188)">
			<stop  offset="0" style="stop-color:#6FAFFF"/>
			<stop  offset="1" style="stop-color:#499AF9"/>
		</linearGradient>
		<path id="Path-18" sketch:type="MSShapeGroup" fill="url(#Path-18_1_)" d="M1110,262l44-92l-63,33L1110,262z"/>
		
			<linearGradient id="Path-19_1_" gradientUnits="userSpaceOnUse" x1="944.2289" y1="399.2303" x2="944.7775" y2="400.0583" gradientTransform="matrix(88 0 0 -57 -81957 22972.8711)">
			<stop  offset="0" style="stop-color:#499AF9"/>
			<stop  offset="1" style="stop-color:#2179DF"/>
		</linearGradient>
		<path id="Path-19" sketch:type="MSShapeGroup" fill="url(#Path-19_1_)" d="M1128,223l88-57l-62,4L1128,223z"/>
		<path id="Path-20" sketch:type="MSShapeGroup" fill="#1F70D2" d="M1210,142l6,24l-61,4L1210,142z"/>
		<path id="Path-21" sketch:type="MSShapeGroup" fill="#499AF9" d="M1216,166l-84.7,159.7L1129,222L1216,166z"/>
		
			<linearGradient id="Path-22_1_" gradientUnits="userSpaceOnUse" x1="946.7724" y1="397.3" x2="946.4062" y2="398.021" gradientTransform="matrix(109 0 0 -104 -101963 41580.6406)">
			<stop  offset="0" style="stop-color:#539BEE"/>
			<stop  offset="1" style="stop-color:#0C64CA"/>
		</linearGradient>
		<path id="Path-22" sketch:type="MSShapeGroup" fill="url(#Path-22_1_)" d="M1216,166l70,104l-109-31L1216,166z"/>
		
			<linearGradient id="Path-23_1_" gradientUnits="userSpaceOnUse" x1="947.6732" y1="397.9805" x2="947.5773" y2="398.4281" gradientTransform="matrix(123 0 0 -87 -115379 34923.1719)">
			<stop  offset="0" style="stop-color:#75B5FF"/>
			<stop  offset="1" style="stop-color:#4C8AF0"/>
			<stop  offset="1" style="stop-color:#166ED4"/>
		</linearGradient>
		<path id="Path-23" sketch:type="MSShapeGroup" fill="url(#Path-23_1_)" d="M1131.3,325.7L1254,324l-77-85L1131.3,325.7z"/>
		<path id="Path-24" sketch:type="MSShapeGroup" fill="#499AF9" d="M1254,324l32-54l-109-31L1254,324z"/>
		<path id="Path-25" sketch:type="MSShapeGroup" fill="#53A0FE" d="M998,261l112,231.7l22-166.7L998,261z"/>
		
			<linearGradient id="Path-26_1_" gradientUnits="userSpaceOnUse" x1="932.7738" y1="396.5707" x2="932.7738" y2="397.2888" gradientTransform="matrix(42 0 0 -167 -38046 66681.9688)">
			<stop  offset="0" style="stop-color:#88BDFC"/>
			<stop  offset="1" style="stop-color:#6FAFFF"/>
		</linearGradient>
		<path id="Path-26" sketch:type="MSShapeGroup" fill="url(#Path-26_1_)" d="M1131.3,325.7L1151,449l-41,43.7L1131.3,325.7z"/>
		<path id="Path-27" sketch:type="MSShapeGroup" fill="#75B5FF" d="M1146.7,421.2L1254,324l-122.7,1.7L1146.7,421.2z"/>
		<path id="Path-28" sketch:type="MSShapeGroup" fill="#94C1F9" d="M1254,324l20.3,47.3l-127.6,49.9L1254,324z"/>
		<path id="Path-29" sketch:type="MSShapeGroup" fill="#6FAFFF" d="M998,261l-13.3,130.2L1076,420L998,261z"/>
		
			<linearGradient id="Path-30_1_" gradientUnits="userSpaceOnUse" x1="941.8635" y1="398.2812" x2="941.6486" y2="398.9672" gradientTransform="matrix(70 0 0 -74 -64854 29956.3398)">
			<stop  offset="0" style="stop-color:#87BCFF"/>
			<stop  offset="1" style="stop-color:#53A0FD"/>
		</linearGradient>
		<path id="Path-30" sketch:type="MSShapeGroup" fill="url(#Path-30_1_)" d="M1076,420l-35,48l69,24.7L1076,420z"/>
		<path id="Path-31" sketch:type="MSShapeGroup" fill="#87BDFF" d="M1041,468l-56.3-76.8L1076,420L1041,468z"/>
		
			<linearGradient id="Path-32_1_" gradientUnits="userSpaceOnUse" x1="943.9128" y1="398.1613" x2="943.1547" y2="397.4424" gradientTransform="matrix(81 0 0 -97 -75461 38636.2695)">
			<stop  offset="0" style="stop-color:#0C63C9"/>
			<stop  offset="0.3301" style="stop-color:#0961C7"/>
			<stop  offset="1" style="stop-color:#035DC3"/>
		</linearGradient>
		<path id="Path-32" sketch:type="MSShapeGroup" fill="url(#Path-32_1_)" d="M939,90l19-97l62,59L939,90z"/>
		
			<linearGradient id="Path-33_1_" gradientUnits="userSpaceOnUse" x1="952.7646" y1="397.3559" x2="952.671" y2="397.8559" gradientTransform="matrix(335 0 0 -97 -318347 38636.2695)">
			<stop  offset="0" style="stop-color:#237ADD"/>
			<stop  offset="1" style="stop-color:#0C60C2"/>
		</linearGradient>
		<path id="Path-33" sketch:type="MSShapeGroup" fill="url(#Path-33_1_)" d="M939,90L623,73L958-7L939,90z"/>
		
			<linearGradient id="Path-34_1_" gradientUnits="userSpaceOnUse" x1="947.7899" y1="396.9779" x2="947.8976" y2="397.6078" gradientTransform="matrix(125 0 0 -114 -117922 45332.7422)">
			<stop  offset="0" style="stop-color:#499AF9"/>
			<stop  offset="1" style="stop-color:#0C63C9"/>
		</linearGradient>
		<path id="Path-34" sketch:type="MSShapeGroup" fill="url(#Path-34_1_)" d="M498-12l125,85l-13-98.5L498-12z"/>
		
			<linearGradient id="Path-35_1_" gradientUnits="userSpaceOnUse" x1="950.7311" y1="397.9531" x2="950.4541" y2="400.1435" gradientTransform="matrix(191 0 0 -54 -180683 21604.1406)">
			<stop  offset="0" style="stop-color:#53A0FE"/>
			<stop  offset="1" style="stop-color:#0656B4"/>
		</linearGradient>
		<path id="Path-35" sketch:type="MSShapeGroup" fill="url(#Path-35_1_)" d="M767,39l2-54l189,8L767,39z"/>
		
			<linearGradient id="Path-36_1_" gradientUnits="userSpaceOnUse" x1="943.559" y1="397.7816" x2="943.7407" y2="398.4977" gradientTransform="matrix(82 0 0 -83 -76743 33090.5312)">
			<stop  offset="0" style="stop-color:#277EE3"/>
			<stop  offset="1" style="stop-color:#065ABC"/>
		</linearGradient>
		<path id="Path-36" sketch:type="MSShapeGroup" fill="url(#Path-36_1_)" d="M694-10l-71,83l-13-98.5L694-10z"/>
		<path id="Path-37" sketch:type="MSShapeGroup" fill="#0C63C9" d="M694-10l73,49l2-54L694-10z"/>
		<path id="Path-38" sketch:type="MSShapeGroup" fill="#2179DF" d="M881,119l-3-33l61,4L881,119z"/>
		
			<linearGradient id="Path-39_1_" gradientUnits="userSpaceOnUse" x1="949.3889" y1="397.0605" x2="949.491" y2="397.9603" gradientTransform="matrix(159 0 0 -114 -150267 45446.7422)">
			<stop  offset="0" style="stop-color:#51A1FF"/>
			<stop  offset="1" style="stop-color:#0C63C9"/>
		</linearGradient>
		<path id="Path-39" sketch:type="MSShapeGroup" fill="url(#Path-39_1_)" d="M623,73l64,112.5L782,80L623,73z"/>
		
			<linearGradient id="Path-40_1_" gradientUnits="userSpaceOnUse" x1="945.4911" y1="396.5003" x2="945.6677" y2="396.8494" gradientTransform="matrix(96 0 0 -216 -90039 85836.5625)">
			<stop  offset="0" style="stop-color:#51A1FF"/>
			<stop  offset="1" style="stop-color:#2B80E3"/>
		</linearGradient>
		<path id="Path-40" sketch:type="MSShapeGroup" fill="url(#Path-40_1_)" d="M782,80l-33.3,211.3L687,185.5L782,80z"/>
		
			<linearGradient id="Path-41_1_" gradientUnits="userSpaceOnUse" x1="948.2658" y1="397.0042" x2="947.8171" y2="396.0542" gradientTransform="matrix(130 0 0 -209 -122447 83065.1875)">
			<stop  offset="0" style="stop-color:#2177DE"/>
			<stop  offset="1" style="stop-color:#5DA7FF"/>
		</linearGradient>
		<path id="Path-41" sketch:type="MSShapeGroup" fill="url(#Path-41_1_)" d="M748.7,291.3L878,86l-96-6L748.7,291.3z"/>
		<path id="Path-42" sketch:type="MSShapeGroup" fill="#1973D8" d="M881,119l-24-2l21-31L881,119z"/>
		<path id="Path-43" sketch:type="MSShapeGroup" fill="#1973D8" d="M998,260L857,117l24,2L998,260z"/>
		
			<linearGradient id="Path-44_1_" gradientUnits="userSpaceOnUse" x1="948.5931" y1="396.5101" x2="949.204" y2="396.0473" gradientTransform="matrix(142 0 0 -274 -133798 108836.3438)">
			<stop  offset="0" style="stop-color:#0C63C9"/>
			<stop  offset="1" style="stop-color:#499AF9"/>
		</linearGradient>
		<path id="Path-44" sketch:type="MSShapeGroup" fill="url(#Path-44_1_)" d="M857,117l127.7,274.2L999,256L857,117z"/>
		<path id="Path-45" sketch:type="MSShapeGroup" fill="#72B3FF" d="M984.7,391.2L974,517l67-49L984.7,391.2z"/>
		
			<linearGradient id="Path-46_1_" gradientUnits="userSpaceOnUse" x1="947.186" y1="396.7829" x2="946.3026" y2="395.9625" gradientTransform="matrix(109 0 0 -273 -102392 108440.4297)">
			<stop  offset="0" style="stop-color:#0C63C9"/>
			<stop  offset="1" style="stop-color:#6FAFFF"/>
		</linearGradient>
		<path id="Path-46" sketch:type="MSShapeGroup" fill="url(#Path-46_1_)" d="M763,390l94-273L748.7,291.3L763,390z"/>
		<path id="Path-47" sketch:type="MSShapeGroup" fill="#53A0FE" d="M802.4,487L847,633.5L791,553L802.4,487z"/>
		
			<linearGradient id="Path-48_1_" gradientUnits="userSpaceOnUse" x1="949.9489" y1="397.5073" x2="949.9489" y2="396.5241" gradientTransform="matrix(172 0 0 -149 -162503 59715.5898)">
			<stop  offset="0" style="stop-color:#3F96FC"/>
			<stop  offset="1" style="stop-color:#5DA7FF"/>
		</linearGradient>
		<path id="Path-48" sketch:type="MSShapeGroup" fill="url(#Path-48_1_)" d="M802.4,487L974,517L847,633.5L802.4,487z"/>
		
			<linearGradient id="Path-49_1_" gradientUnits="userSpaceOnUse" x1="950.8186" y1="397.3218" x2="950.8186" y2="396.3276" gradientTransform="matrix(204 0 0 -170 -193117 67862.7031)">
			<stop  offset="0" style="stop-color:#499AF9"/>
			<stop  offset="1" style="stop-color:#6FAFFF"/>
		</linearGradient>
		<path id="Path-49" sketch:type="MSShapeGroup" fill="url(#Path-49_1_)" d="M748,431l204-113L802.4,487L748,431z"/>
		
			<linearGradient id="Path-50_1_" gradientUnits="userSpaceOnUse" x1="950.8269" y1="395.9094" x2="950.921" y2="396.5338" gradientTransform="matrix(204 0 0 -314 -193117 124672.7422)">
			<stop  offset="0" style="stop-color:#6FAFFF"/>
			<stop  offset="1" style="stop-color:#2179DF"/>
		</linearGradient>
		<path id="Path-50" sketch:type="MSShapeGroup" fill="url(#Path-50_1_)" d="M857,117l95,201L748,431L857,117z"/>
		
			<linearGradient id="Path-51_1_" gradientUnits="userSpaceOnUse" x1="950.2502" y1="397.3301" x2="950.2502" y2="396.3301" gradientTransform="matrix(182 0 0 -169 -172052 67466.7891)">
			<stop  offset="0" style="stop-color:#4F9FFF"/>
			<stop  offset="1" style="stop-color:#6FAFFF"/>
		</linearGradient>
		<path id="Path-51" sketch:type="MSShapeGroup" fill="url(#Path-51_1_)" d="M952,318l32.7,73.2L802.4,487L952,318z"/>
		
			<linearGradient id="Path-52_1_" gradientUnits="userSpaceOnUse" x1="950.2816" y1="397.8134" x2="950.2816" y2="396.8148" gradientTransform="matrix(183 0 0 -126 -173008 50515.6602)">
			<stop  offset="0" style="stop-color:#3088EE"/>
			<stop  offset="1" style="stop-color:#51A1FF"/>
		</linearGradient>
		<path id="Path-52" sketch:type="MSShapeGroup" fill="url(#Path-52_1_)" d="M984.7,391.2L974,517l-171.6-30L984.7,391.2z"/>
		
			<linearGradient id="Path-53_1_" gradientUnits="userSpaceOnUse" x1="948.8618" y1="398.0487" x2="948.8121" y2="398.3831" gradientTransform="matrix(144 0 0 -83 -135942 33090.5312)">
			<stop  offset="0" style="stop-color:#2D7FDF"/>
			<stop  offset="1" style="stop-color:#0758BA"/>
		</linearGradient>
		<path id="Path-53" sketch:type="MSShapeGroup" fill="url(#Path-53_1_)" d="M694-10l-71,83l144-34L694-10z"/>
		<path id="Path-54" sketch:type="MSShapeGroup" fill="#75B5FF" d="M1129,222l2.3,103.7L1110,262L1129,222z"/>
		<path id="Path-55" sketch:type="MSShapeGroup" fill="#0053B4" d="M1191.2-12.2L1346-7.5L1210,142L1191.2-12.2z"/>
		<path id="Path-56" sketch:type="MSShapeGroup" fill="#1973D8" d="M1210,142l6,24l39-74L1210,142z"/>
		
			<linearGradient id="Path-57_1_" gradientUnits="userSpaceOnUse" x1="941.8571" y1="397.2433" x2="941.8571" y2="396.3824" gradientTransform="matrix(70 0 0 -180 -64679 71593.7969)">
			<stop  offset="0" style="stop-color:#53A0FE"/>
			<stop  offset="1" style="stop-color:#0C63C9"/>
		</linearGradient>
		<path id="Path-57" sketch:type="MSShapeGroup" fill="url(#Path-57_1_)" d="M1256,90l30,180l-70-104L1256,90z"/>
		<path id="Path-58" sketch:type="MSShapeGroup" fill="#0C63C9" d="M1256,90l90-97.5L1286,270L1256,90z"/>
		<path id="Path-59" sketch:type="MSShapeGroup" fill="#68ABFB" d="M1286,270l-32,54l20.3,47.3L1286,270z"/>
		<path id="Path-60" sketch:type="MSShapeGroup" fill="#75B5FF" d="M1286,270l95,161l-106.7-59.7L1286,270z"/>
		<path id="Path-61" sketch:type="MSShapeGroup" fill="#0051AF" d="M1346-7.5l53,42.5l20.7-44.7L1346-7.5z"/>
		
			<linearGradient id="Path-62_1_" gradientUnits="userSpaceOnUse" x1="947.7362" y1="398.1141" x2="948.1014" y2="397.5928" gradientTransform="matrix(130.073 0 0 -93.0002 -121938.7891 37051.7266)">
			<stop  offset="0" style="stop-color:#004EAA"/>
			<stop  offset="1" style="stop-color:#0C63C9"/>
		</linearGradient>
		<path id="Path-62" sketch:type="MSShapeGroup" fill="url(#Path-62_1_)" d="M1346-7.5L1325.9,85l130.1-4L1346-7.5z"/>
		
			<linearGradient id="Path-63_1_" gradientUnits="userSpaceOnUse" x1="949.5376" y1="396.6454" x2="949.9755" y2="397.1418" gradientTransform="matrix(170 0 0 -189 -160109 75147.9922)">
			<stop  offset="0" style="stop-color:#2179DF"/>
			<stop  offset="1" style="stop-color:#0961C7"/>
		</linearGradient>
		<path id="Path-63" sketch:type="MSShapeGroup" fill="url(#Path-63_1_)" d="M1456,81l-170,189l39.9-185L1456,81z"/>
		<path id="Path-64" sketch:type="MSShapeGroup" fill="#0F66CC" d="M1456,81l-36.3-90.7L1399,35L1456,81z"/>
		
			<linearGradient id="Path-65_1_" gradientUnits="userSpaceOnUse" x1="950.3043" y1="396.4497" x2="949.6678" y2="395.8316" gradientTransform="matrix(170 0 0 -350 -160109 138889.5)">
			<stop  offset="0" style="stop-color:#0961C7"/>
			<stop  offset="1" style="stop-color:#499AF9"/>
		</linearGradient>
		<path id="Path-65" sketch:type="MSShapeGroup" fill="url(#Path-65_1_)" d="M1456,81l-75,350l-95-161L1456,81z"/>
		
			<linearGradient id="Path-66_1_" gradientUnits="userSpaceOnUse" x1="936.3873" y1="396.9601" x2="935.825" y2="396.7272" gradientTransform="matrix(49 0 0 -175 -44442 69796.25)">
			<stop  offset="0" style="stop-color:#8FC2FF"/>
			<stop  offset="1" style="stop-color:#499AF9"/>
		</linearGradient>
		<path id="Path-66" sketch:type="MSShapeGroup" fill="url(#Path-66_1_)" d="M1447,414l-32-142l-17,175.5L1447,414z"/>
		
			<linearGradient id="Path-67_1_" gradientUnits="userSpaceOnUse" x1="927.9162" y1="397.2701" x2="927.1493" y2="396.3077" gradientTransform="matrix(34 0 0 -176 -30134 70192.1641)">
			<stop  offset="0" style="stop-color:#88BDFF"/>
			<stop  offset="1" style="stop-color:#53A0FE"/>
		</linearGradient>
		<path id="Path-67" sketch:type="MSShapeGroup" fill="url(#Path-67_1_)" d="M1415,272l-34,159l17,16.5L1415,272z"/>
		<path id="Path-68" sketch:type="MSShapeGroup" fill="#0055BA" d="M1419.7-9.7L1514-6l-58,87L1419.7-9.7z"/>
		<path id="Path-69" sketch:type="MSShapeGroup" fill="#3C92F2" d="M1456,81l-9,333l-32-142L1456,81z"/>
		<path id="Path-70" sketch:type="MSShapeGroup" fill="#025AC0" d="M1456,81l266-43.5L1514-6L1456,81z"/>
		<path id="Path-71" sketch:type="MSShapeGroup" fill="#2179DF" d="M1456,81l-2,75l119-94L1456,81z"/>
		<path id="Path-72" sketch:type="MSShapeGroup" fill="#53A0FE" d="M1514,108l-65,216l5-169L1514,108z"/>
		<path id="Path-73" sketch:type="MSShapeGroup" fill="#0961C7" d="M1722,38l58.8-45.2L1514-6L1722,38z"/>
		<path id="Path-74" sketch:type="MSShapeGroup" fill="#7EB6FA" d="M1449,323l91,91h-93L1449,323z"/>
		<path id="Path-75" sketch:type="MSShapeGroup" fill="#3C91F5" d="M1514,108l26,306l-91-90L1514,108z"/>
		<path id="Path-76" sketch:type="MSShapeGroup" fill="#0C64CA" d="M1514,108l59-46l149-25L1514,108z"/>
		<path id="Path-77" sketch:type="MSShapeGroup" fill="#0C63C9" d="M1514,108l7,84l82-115L1514,108z"/>
		<path id="Path-78" sketch:type="MSShapeGroup" fill="#53A0FE" d="M1540,414l66-145l-85-77L1540,414z"/>
		<path id="Path-79" sketch:type="MSShapeGroup" fill="#75B5FF" d="M1606,268l-13,160l-53-14L1606,268z"/>
		
			<linearGradient id="Path-80_1_" gradientUnits="userSpaceOnUse" x1="944.3113" y1="396.4761" x2="944.5519" y2="397.0721" gradientTransform="matrix(85 0 0 -192 -78699 76331.7188)">
			<stop  offset="0" style="stop-color:#499AF9"/>
			<stop  offset="1" style="stop-color:#025AC0"/>
		</linearGradient>
		<path id="Path-80" sketch:type="MSShapeGroup" fill="url(#Path-80_1_)" d="M1606,269l-85-77l82-115L1606,269z"/>
		<path id="Path-81" sketch:type="MSShapeGroup" fill="#0961C7" d="M1606,269l116-192h-119L1606,269z"/>
		<path id="Path-82" sketch:type="MSShapeGroup" fill="#025AC0" d="M1720,37l2,40h-118L1720,37z"/>
		<path id="Path-83" sketch:type="MSShapeGroup" fill="#B5D7FF" d="M1593,428l142-103l-88.5,202.5L1593,428z"/>
		<path id="Path-84" sketch:type="MSShapeGroup" fill="#A2CDFF" d="M1678,454v92l-31.5-18.5L1678,454z"/>
		<path id="Path-85" sketch:type="MSShapeGroup" fill="#B5D7FF" d="M1678,453l92.7,58.3L1678,546V453z"/>
		<path id="Path-86" sketch:type="MSShapeGroup" fill="#8DC0FF" d="M1735,325l35.7,186.3L1678,453L1735,325z"/>
		<path id="Path-87" sketch:type="MSShapeGroup" fill="#499AF9" d="M1735,325l-129-56l-13,159L1735,325z"/>
		<path id="Path-88" sketch:type="MSShapeGroup" fill="#1973D8" d="M1735,325l-13-248l-116,192L1735,325z"/>
		
			<linearGradient id="Path-89_1_" gradientUnits="userSpaceOnUse" x1="945.3175" y1="396.2488" x2="944.8494" y2="396.8642" gradientTransform="matrix(93 0 0 -209 -86125 83310.1875)">
			<stop  offset="0" style="stop-color:#97C5FF"/>
			<stop  offset="1" style="stop-color:#6FAFFF"/>
		</linearGradient>
		<path id="Path-89" sketch:type="MSShapeGroup" fill="url(#Path-89_1_)" d="M1827.5,533.5L1735,325l35.7,186.3L1827.5,533.5z"/>
		<path id="Path-90" sketch:type="MSShapeGroup" fill="#6BAEFF" d="M1962,402l-194-1l59.5,132.5L1962,402z"/>
		<path id="Path-91" sketch:type="MSShapeGroup" fill="#53A0FE" d="M1735,325l227,77l-194-1L1735,325z"/>
		
			<linearGradient id="Path-92_1_" gradientUnits="userSpaceOnUse" x1="939.9029" y1="396.2427" x2="939.7573" y2="396.5072" gradientTransform="matrix(61 0 0 -333 -55580 132070.0312)">
			<stop  offset="0" style="stop-color:#53A0FE"/>
			<stop  offset="1" style="stop-color:#0C64CA"/>
		</linearGradient>
		<path id="Path-92" sketch:type="MSShapeGroup" fill="url(#Path-92_1_)" d="M1780.8-7.2L1735,325l-15-288L1780.8-7.2z"/>
		
			<linearGradient id="Path-93_1_" gradientUnits="userSpaceOnUse" x1="947.9453" y1="395.6709" x2="947.736" y2="396.0501" gradientTransform="matrix(127 0 0 -375 -118595 148699.25)">
			<stop  offset="0" style="stop-color:#6FAFFF"/>
			<stop  offset="1" style="stop-color:#0C63C9"/>
		</linearGradient>
		<path id="Path-93" sketch:type="MSShapeGroup" fill="url(#Path-93_1_)" d="M1780.8-7.2L1862,368l-127-43L1780.8-7.2z"/>
		<path id="Path-94" sketch:type="MSShapeGroup" fill="#025AC0" d="M1810,130l85-141l-114.2,3.8L1810,130z"/>
		<path id="Path-95" sketch:type="MSShapeGroup" fill="#0055B8" d="M1810,130l18,82l27-157L1810,130z"/>
		<path id="Path-96" sketch:type="MSShapeGroup" fill="#499AF9" d="M1828,212l134,190l-100-34L1828,212z"/>
		<path id="Path-97" sketch:type="MSShapeGroup" fill="#1973D8" d="M1828,212l27-157l107,347L1828,212z"/>
		<path id="Path-98" sketch:type="MSShapeGroup" fill="#0050AD" d="M1880,136l15-147l-40,66L1880,136z"/>
		<path id="Path-99" sketch:type="MSShapeGroup" fill="#0C63C9" d="M1880,136L2012-6l-117-5L1880,136z"/>
		<path id="Path-100" sketch:type="MSShapeGroup" fill="#1973D8" d="M1962,402l12-367l-94,101L1962,402z"/>
		
			<linearGradient id="Path-101_1_" gradientUnits="userSpaceOnUse" x1="942.0493" y1="397.0368" x2="942.0493" y2="396.0368" gradientTransform="matrix(71 0 0 -213 -64883 84603.8281)">
			<stop  offset="0" style="stop-color:#499AF9"/>
			<stop  offset="1" style="stop-color:#0961C7"/>
		</linearGradient>
		<path id="Path-101" sketch:type="MSShapeGroup" fill="url(#Path-101_1_)" d="M2038,213l-64-178l-7,213L2038,213z"/>
		<path id="Path-102" sketch:type="MSShapeGroup" fill="#0C63C9" d="M2038,213L2012-6l-38,41L2038,213z"/>
		<path id="Path-103" sketch:type="MSShapeGroup" fill="#004DA7" d="M2038,213L2151-5l-139-1L2038,213z"/>
		<path id="Path-104" sketch:type="MSShapeGroup" fill="#0C63C9" d="M2151-5l-28,54l37.8,87.5L2151-5z"/>
		<path id="Path-105" sketch:type="MSShapeGroup" fill="#1973D8" d="M2123,49l-43,83l57-50L2123,49z"/>
		<path id="Path-106" sketch:type="MSShapeGroup" fill="#53A0FE" d="M2080,132l80.8,4.5L2137,82L2080,132z"/>
		<path id="Path-107" sketch:type="MSShapeGroup" fill="#6FAFFF" d="M2080,132l-42,81l122.8-76.5L2080,132z"/>
		<path id="Path-108" sketch:type="MSShapeGroup" fill="#53A0FE" d="M2160.8,136.5L2080,318l-42-105L2160.8,136.5z"/>
		<path id="Path-109" sketch:type="MSShapeGroup" fill="#68ABFB" d="M2086,366l74.8-229.5L2080,318L2086,366z"/>
		<path id="Path-110" sketch:type="MSShapeGroup" fill="#ABD0FA" d="M2086,366l15,32l11-113L2086,366z"/>
		<path id="Path-111" sketch:type="MSShapeGroup" fill="#ABD0FA" d="M0,0"/>
		<path id="Path-112" sketch:type="MSShapeGroup" fill="#6FAFFF" d="M2112,285l40,170l-51-57L2112,285z"/>
		<path id="Path-113" sketch:type="MSShapeGroup" fill="#75B5FF" d="M2112,285l48.8-148.5L2152,455L2112,285z"/>
	</g>
</g>
</svg>
